<svg xmlns="http://www.w3.org/2000/svg" xmlns:xlink="http://www.w3.org/1999/xlink" width="0" height="0" style="position:absolute">
    <defs>
        <svg height="22" viewBox="0 0 22 22" width="22" id="icon-arrow-next"><title/><path d="M0 11C0 4.925 4.925 0 11 0s11 4.925 11 11-4.925 11-11 11S0 17.075 0 11zm21 0c0-5.523-4.477-10-10-10S1 5.477 1 11s4.477 10 10 10 10-4.477 10-10zm-8.855.42l-3.89 3.89 1.422 1.42 5.303-5.303L9.323 5.77 7.91 7.184l4.235 4.237z" fill="none"/></svg>
        <svg height="22" viewBox="0 0 22 22" width="22" id="icon-arrow-previous"><title/><path d="M0 11C0 4.925 4.925 0 11 0s11 4.925 11 11-4.925 11-11 11S0 17.075 0 11zm21 0c0-5.523-4.477-10-10-10S1 5.477 1 11s4.477 10 10 10 10-4.477 10-10zm-11.645.08l3.89-3.89-1.422-1.42-5.303 5.303 5.657 5.657 1.414-1.414-4.235-4.237z" fill="none"/></svg>
        <svg width="100" height="100" viewBox="0 0 100 100" id="icon-etsy"><path fill-rule="evenodd" clip-rule="evenodd" d="M50 1.125C23.007 1.125 1.125 23.008 1.125 50S23.007 98.875 50 98.875 98.875 76.992 98.875 50 76.993 1.125 50 1.125zm29.853 68.147c-.555 4.597-1.133 9.192-1.65 13.795-.19 1.712-.124 1.703-1.88 1.682-13.405-.168-26.81-.385-40.214-.46-4.804-.028-9.608.29-14.413.44-.636.02-1.27.004-2.027.004v-4.13c1.713-.337 3.53-.673 5.334-1.062.742-.16 1.478-.39 2.18-.674 1.062-.426 1.728-1.215 1.88-2.38.072-.547.18-1.096.185-1.643.09-10.002.217-20.003.23-30.004.01-6.212-.15-12.424-.25-18.635-.058-3.517-.99-4.61-4.418-5.266-1.457-.278-2.93-.498-4.372-.834-.348-.083-.843-.506-.87-.81-.105-1.133-.042-2.28-.042-3.516 19.228.32 38.347 1.13 57.646-.536-.404 6.527-.81 13.066-1.22 19.722-1.17 0-2.24.093-3.278-.05-.368-.05-.83-.62-.955-1.04-.587-1.947-1.022-3.942-1.613-5.89-.345-1.133-.812-2.242-1.346-3.3-1.206-2.395-3.017-3.68-5.886-3.632-6.895.12-13.794.037-20.69.04-1.754.003-1.806.06-1.808 1.78-.01 7.747-.016 15.496-.022 23.243-.002.423 0 .846 0 1.378 3.05 0 5.932.048 8.813-.018 1.867-.04 3.73-.225 5.595-.38 2.548-.21 3.455-.954 4.095-3.414.48-1.846.91-3.705 1.326-5.567.165-.734.498-1.072 1.303-1.015 1.014.073 2.037.02 3.2.02 0 .676.005 1.283 0 1.893-.062 7.27-.14 14.542-.164 21.813-.004.967-.228 1.352-1.266 1.358-3.055.022-3.053.063-3.774-2.92-.26-1.073-.52-2.146-.802-3.21-.648-2.456-2.48-3.36-4.783-3.436-4.336-.145-8.677-.188-13.015-.27-.118-.002-.237.063-.47.125-.02.48-.063.978-.064 1.475-.01 6.472-.016 12.943-.018 19.414-.003 4.02 1.512 5.97 5.546 6.085 6.204.178 12.423.05 18.63-.14 3.753-.114 6.324-2.313 7.933-5.58 1.31-2.667 2.51-5.392 3.62-8.147.49-1.22 1.13-1.787 2.45-1.584.575.09 1.175.015 1.982.015-.226 1.86-.434 3.56-.64 5.262z"/></svg>
    </defs>
</svg>