<?xml version="1.0" encoding="utf-8"?>
<!DOCTYPE svg PUBLIC "-//W3C//DTD SVG 1.1//EN" "http://www.w3.org/Graphics/SVG/1.1/DTD/svg11.dtd">
<svg version="1.1" id="Layer_6" xmlns="http://www.w3.org/2000/svg" xmlns:xlink="http://www.w3.org/1999/xlink" x="0px" y="0px"
	 width="100px" height="100px" viewBox="0 0 100 100" enable-background="new 0 0 100 100" xml:space="preserve">
<path fill-rule="evenodd" clip-rule="evenodd" d="M50,1.125C23.007,1.125,1.125,23.008,1.125,50S23.007,98.875,50,98.875
	S98.875,76.992,98.875,50S76.993,1.125,50,1.125z M79.853,69.272c-0.555,4.597-1.133,9.192-1.649,13.795
	c-0.191,1.712-0.125,1.703-1.881,1.682c-13.405-0.167-26.809-0.384-40.214-0.459c-4.803-0.028-9.607,0.289-14.412,0.44
	c-0.636,0.021-1.271,0.004-2.027,0.004c0-1.335,0-2.628,0-4.129c1.713-0.338,3.529-0.674,5.334-1.063
	c0.742-0.16,1.478-0.391,2.181-0.674c1.061-0.426,1.727-1.215,1.88-2.38c0.071-0.547,0.179-1.096,0.184-1.643
	c0.092-10.002,0.218-20.003,0.232-30.004c0.009-6.213-0.15-12.425-0.252-18.636c-0.057-3.517-0.988-4.611-4.417-5.266
	c-1.457-0.277-2.93-0.497-4.372-0.833c-0.348-0.083-0.843-0.506-0.871-0.81c-0.104-1.133-0.041-2.279-0.041-3.516
	c19.228,0.32,38.347,1.13,57.646-0.536c-0.404,6.527-0.809,13.066-1.221,19.722c-1.169,0-2.239,0.093-3.277-0.049
	c-0.368-0.052-0.829-0.62-0.955-1.04c-0.588-1.948-1.023-3.943-1.614-5.892c-0.345-1.132-0.812-2.241-1.346-3.299
	c-1.207-2.395-3.018-3.681-5.887-3.632c-6.895,0.121-13.794,0.037-20.69,0.041c-1.754,0.002-1.806,0.06-1.808,1.778
	c-0.01,7.748-0.016,15.497-0.022,23.244c-0.002,0.423,0,0.846,0,1.378c3.049,0,5.932,0.048,8.813-0.018
	c1.867-0.041,3.731-0.225,5.595-0.379c2.548-0.211,3.455-0.955,4.095-3.415c0.481-1.846,0.91-3.705,1.326-5.567
	c0.165-0.734,0.498-1.072,1.303-1.015c1.014,0.072,2.037,0.018,3.2,0.018c0,0.677,0.005,1.284,0,1.894
	c-0.062,7.271-0.141,14.542-0.164,21.813c-0.004,0.967-0.228,1.352-1.266,1.358c-3.055,0.022-3.053,0.063-3.774-2.921
	c-0.259-1.072-0.521-2.145-0.802-3.21c-0.648-2.455-2.479-3.359-4.783-3.435c-4.336-0.145-8.677-0.188-13.015-0.27
	c-0.118-0.002-0.237,0.063-0.47,0.125c-0.021,0.481-0.063,0.978-0.064,1.475c-0.01,6.472-0.016,12.943-0.018,19.414
	c-0.003,4.021,1.512,5.971,5.546,6.085c6.204,0.178,12.423,0.049,18.629-0.14c3.754-0.114,6.325-2.313,7.934-5.581
	c1.312-2.666,2.512-5.391,3.621-8.146c0.491-1.22,1.129-1.787,2.451-1.584c0.574,0.09,1.174,0.015,1.981,0.015
	C80.266,65.87,80.058,67.57,79.853,69.272z"/>
</svg>
